<svg width="60" height="60" viewBox="0 0 60 60" fill="none" xmlns="http://www.w3.org/2000/svg">
<g opacity="0.3">
<path d="M16.4817 43.5184L14.6614 45.3386M11.0543 39.9112L12.8745 41.7315M11.0543 32.697L12.8745 34.5173M16.4817 36.3041L14.6614 38.1244M23.6959 43.5184L21.8757 45.3386M18.2685 39.9112L20.0888 41.7315M16.4817 29.0899L14.6614 30.9101M11.0543 25.4828L12.8745 27.303M18.2685 32.697L20.0888 34.5173M23.6959 36.3041L21.8757 38.1244M30.9102 43.5184L29.0899 45.3386M25.4828 39.9112L27.3031 41.7315M16.4817 21.8756L14.6614 23.6959M11.0543 18.2685L12.8745 20.0888M23.6959 29.0899L21.8757 30.9101M18.2685 25.4828L20.0888 27.303M25.4828 32.697L27.3031 34.5173M30.9102 36.3041L29.0899 38.1244M38.1245 43.5184L36.3042 45.3386M32.6971 39.9112L34.5173 41.7315M16.4817 14.6614L14.6614 16.4817M23.6959 21.8756L21.8757 23.6959M18.2685 18.2685L20.0888 20.0888M30.9102 29.0899L29.0899 30.9101M25.4828 25.4828L27.3031 27.303M32.6971 32.697L34.5173 34.5173M38.1245 36.3041L36.3042 38.1244M45.3387 43.5184L43.5185 45.3386M39.9113 39.9112L41.7316 41.7315M23.6959 14.6614L21.8757 16.4817M30.9102 21.8756L29.0899 23.6959M25.4828 18.2685L27.3031 20.0888M38.1245 29.0899L36.3042 30.9101M32.6971 25.4828L34.5173 27.303M39.9113 32.697L41.7316 34.5173M45.3387 36.3041L43.5185 38.1244M47.1256 39.9112L48.9458 41.7315M18.2685 47.1255L20.0888 48.9457M25.4828 47.1255L27.3031 48.9457M32.6971 47.1255L34.5173 48.9457M39.9113 47.1255L41.7316 48.9457M47.1256 47.1255L48.4999 48.4998M30.9102 14.6614L29.0899 16.4817M38.1245 21.8756L36.3042 23.6959M32.6971 18.2685L34.5173 20.0888M45.3387 29.0899L43.5185 30.9101M39.9113 25.4828L41.7316 27.303M47.1256 32.697L48.9458 34.5173M38.1245 14.6614L36.3042 16.4817M45.3387 21.8756L43.5185 23.6959M39.9113 18.2685L41.7316 20.0888M47.1256 25.4828L48.9458 27.303M45.3387 14.6614L43.5185 16.4817M47.1256 18.2685L48.9458 20.0888M11.4599 11.4057L12.8745 12.8203M18.2685 11L20.0888 12.8203M25.4828 11L27.3031 12.8203M32.6971 11L34.5173 12.8203M39.9113 11L41.7316 12.8203M47.8069 49H12.1932C11.5342 49 11 48.4658 11 47.8068V12.1932C11 11.5342 11.5342 11 12.1932 11H47.8068C48.4658 11 49 11.5342 49 12.1932V47.8067C49.0001 48.4658 48.4659 49 47.8069 49Z" stroke="black" stroke-width="1.75781" stroke-miterlimit="10" stroke-linecap="round" stroke-linejoin="round"/>
</g>
</svg>
