<svg width="60" height="60" viewBox="0 0 60 60" fill="none" xmlns="http://www.w3.org/2000/svg">
<g opacity="0.3">
<path d="M37.1875 13.6484H36.7383V8.34766C36.7383 7.60339 36.1349 7 35.3906 7C34.6464 7 34.043 7.60339 34.043 8.34766V13.6484H25.957V8.34766C25.957 7.60339 25.3536 7 24.6094 7C23.8651 7 23.2617 7.60339 23.2617 8.34766V13.6484H22.8125C20.5832 13.6484 18.7695 15.4621 18.7695 17.6914V32.0664C18.7695 34.2957 20.5832 36.1094 22.8125 36.1094H25.5078V51.6523C25.5078 52.3966 26.1112 53 26.8555 53H33.1445C33.8888 53 34.4922 52.3966 34.4922 51.6523V36.1094H37.1875C39.4168 36.1094 41.2305 34.2957 41.2305 32.0664V17.6914C41.2305 15.4621 39.4168 13.6484 37.1875 13.6484ZM31.7969 50.3047H28.2031V36.1094H31.7969V50.3047ZM38.5352 32.0664C38.5352 32.8095 37.9306 33.4141 37.1875 33.4141H22.8125C22.0694 33.4141 21.4648 32.8095 21.4648 32.0664V17.6914C21.4648 16.9483 22.0694 16.3438 22.8125 16.3438H37.1875C37.9306 16.3438 38.5352 16.9483 38.5352 17.6914V32.0664Z" fill="black"/>
<path d="M34.4922 28.1133H25.5078C24.7635 28.1133 24.1602 28.7167 24.1602 29.4609C24.1602 30.2052 24.7635 30.8086 25.5078 30.8086H34.4922C35.2365 30.8086 35.8398 30.2052 35.8398 29.4609C35.8398 28.7167 35.2365 28.1133 34.4922 28.1133Z" fill="black"/>
</g>
</svg>
