<svg width="60" height="60" viewBox="0 0 60 60" fill="none" xmlns="http://www.w3.org/2000/svg">
<g opacity="0.3">
<path d="M47.9871 12H12.0129V23.3906H14.6145V24.1046C14.6145 25.4485 15.3751 26.6173 16.4881 27.2052V44.4952C16.4881 46.4277 18.0604 48 19.9929 48H23.5798C25.5124 48 27.0846 46.4278 27.0846 44.4952V27.2053C28.1976 26.6174 28.9583 25.4485 28.9583 24.1046V23.3906H31.0676V24.1046C31.0676 25.4485 31.8283 26.6173 32.9412 27.2052V44.4952C32.9412 46.4277 34.5135 48 36.446 48H40.033C41.9655 48 43.5378 46.4278 43.5378 44.4952V27.2053C44.6507 26.6174 45.4114 25.4485 45.4114 24.1046V23.3906H47.9871V12ZM45.8777 14.1094V16.6406H14.1223V14.1094H45.8777ZM24.9753 44.4952C24.9753 45.2646 24.3493 45.8906 23.5798 45.8906H19.9929C19.2235 45.8906 18.5975 45.2647 18.5975 44.4952V27.6094H24.9753V44.4952ZM26.8489 24.1046C26.8489 24.874 26.2229 25.5 25.4535 25.5H18.1193C17.3499 25.5 16.7239 24.8741 16.7239 24.1046V23.3906H26.8489V24.1046ZM41.4284 44.4952C41.4284 45.2646 40.8024 45.8906 40.033 45.8906H36.446C35.6766 45.8906 35.0506 45.2647 35.0506 44.4952V27.6094H41.4284V44.4952ZM43.302 24.1046C43.302 24.874 42.676 25.5 41.9066 25.5H34.5724C33.803 25.5 33.177 24.8741 33.177 24.1046V23.3906H43.302V24.1046ZM14.1223 21.2812V18.75H45.8777V21.2812H14.1223Z" fill="black"/>
</g>
</svg>
