<svg width="60" height="60" viewBox="0 0 60 60" fill="none" xmlns="http://www.w3.org/2000/svg">
<g opacity="0.3">
<path d="M46.0675 32.1174H42.7049C41.9253 32.1174 41.2933 31.4854 41.2933 30.7057C41.2933 29.9261 41.9253 29.294 42.7049 29.294H46.94C47.2021 29.294 47.4591 29.367 47.6821 29.5049C47.9051 29.6427 48.0853 29.8399 48.2026 30.0744L53.8492 41.3677C54.3185 42.3062 53.6359 43.4106 52.5866 43.4106H7.41346C6.3641 43.4106 5.68156 42.3062 6.15084 41.3677L11.7974 30.0744C11.9147 29.8399 12.0949 29.6427 12.3179 29.5049C12.5409 29.367 12.7979 29.294 13.0601 29.294H17.295C18.0746 29.294 18.7067 29.9261 18.7067 30.7057C18.7067 31.4854 18.0746 32.1174 17.295 32.1174H13.9324L9.69751 40.5873H50.3023L46.0675 32.1174ZM31.9163 31.3911C32.3175 32.0596 32.1006 32.9267 31.4322 33.3278C30.7636 33.7289 29.8965 33.5121 29.4953 32.8436C27.8155 30.0438 27.8155 27.1325 29.4953 24.3327C30.6388 22.427 30.6388 20.6327 29.4953 18.727C29.0942 18.0585 29.311 17.1914 29.9795 16.7902C30.6481 16.3891 31.5152 16.6059 31.9163 17.2744C33.5962 20.0742 33.5962 22.9855 31.9163 25.7852C30.7729 27.691 30.7729 29.4854 31.9163 31.3911ZM24.8581 31.3911C25.2592 32.0596 25.0424 32.9267 24.3739 33.3278C23.7053 33.7289 22.8382 33.5121 22.4371 32.8436C20.7572 30.0438 20.7572 27.1325 22.4371 24.3327C23.5805 22.427 23.5805 20.6327 22.4371 18.727C22.0359 18.0585 22.2528 17.1914 22.9212 16.7902C23.5898 16.3891 24.4569 16.6059 24.8581 17.2744C26.5379 20.0742 26.5379 22.9855 24.8581 25.7852C23.7146 27.691 23.7146 29.4854 24.8581 31.3911ZM38.9746 31.3911C39.3757 32.0596 39.1589 32.9267 38.4904 33.3278C37.8219 33.7289 36.9547 33.5121 36.5536 32.8436C34.8737 30.0438 34.8737 27.1325 36.5536 24.3327C37.6971 22.427 37.6971 20.6327 36.5536 18.727C36.1525 18.0585 36.3693 17.1914 37.0378 16.7902C37.7064 16.3891 38.5735 16.6059 38.9746 17.2744C40.6545 20.0742 40.6545 22.9855 38.9746 25.7852C37.8311 27.691 37.8311 29.4854 38.9746 31.3911Z" fill="black"/>
</g>
</svg>
