<?xml version="1.0" standalone="no"?>
<!DOCTYPE svg PUBLIC "-//W3C//DTD SVG 20010904//EN"
 "http://www.w3.org/TR/2001/REC-SVG-20010904/DTD/svg10.dtd">
<svg version="1.0" xmlns="http://www.w3.org/2000/svg"
 width="1024.000000pt" height="1024.000000pt" viewBox="0 0 1024.000000 1024.000000"
 preserveAspectRatio="xMidYMid meet">

<g transform="translate(0.000000,1024.000000) scale(0.100000,-0.100000)"
fill="#909092" stroke="none">
<path d="M3535 8951 c-256 -76 -404 -356 -319 -605 29 -84 66 -139 154 -226
47 -47 773 -735 1613 -1530 l1528 -1444 -38 -37 c-21 -20 -729 -703 -1574
-1516 -845 -814 -1552 -1498 -1572 -1519 -83 -93 -123 -212 -115 -349 18 -292
291 -495 579 -431 100 22 160 59 276 168 342 325 3435 3309 3465 3342 171 195
189 455 45 639 -40 52 -1568 1503 -3524 3347 -96 90 -180 143 -267 166 -69 19
-178 16 -251 -5z"/>
</g>
</svg>
