<svg width="531" height="559" viewBox="0 0 531 559" fill="none" xmlns="http://www.w3.org/2000/svg">
<path fill-rule="evenodd" clip-rule="evenodd" d="M319.198 6.23853C370.336 17.0302 417.285 43.511 454.113 82.336C490.875 121.019 515.88 170.307 525.956 223.949C536.032 277.591 530.726 333.17 510.71 383.637C490.694 434.104 456.87 477.186 413.528 507.419C370.186 537.652 319.279 553.673 267.263 553.451C223.165 553.994 179.679 542.566 141.013 520.273L0.875 558.759L38.75 415.434C15.0608 373.746 2.82473 325.972 3.4 277.417C3.54214 222.591 19.1394 169.038 48.2216 123.525C77.3037 78.0115 118.566 42.5792 166.796 21.7039C215.026 0.828641 268.06 -4.55311 319.198 6.23853ZM147.325 469.844C182.942 494.396 224.672 507.324 267.263 507.003C310.764 507.002 353.285 493.425 389.438 467.993C425.59 442.561 453.745 406.418 470.334 364.147C486.923 321.876 491.199 275.379 482.62 230.551C474.041 185.722 452.993 144.581 422.144 112.34C391.296 80.1002 352.035 58.2133 309.34 49.4539C266.644 40.6945 222.436 45.4571 182.318 63.138C142.2 80.8189 107.98 110.622 83.9941 148.77C60.0084 186.917 47.3375 231.691 47.5875 277.417C48.0098 324.312 61.6277 370.026 86.725 408.798L64 493.732L147.325 469.844ZM341.75 313.248C357.371 319.673 372.556 327.211 387.2 335.809C392.039 337.157 396.416 339.917 399.825 343.771C402.35 346.426 401.087 361.023 396.038 376.948C390.988 392.873 364.475 407.471 351.85 408.798C337.981 411.764 323.614 410.849 310.188 406.144C297.141 402.586 284.455 397.697 272.312 391.546C215.104 366.105 175.152 309.423 163.317 292.632C161.571 290.155 160.437 288.546 159.95 288.034C144.833 267.269 135.639 242.417 133.438 216.371C133.019 205.691 134.837 195.044 138.764 185.183C142.691 175.323 148.63 166.489 156.163 159.307C158.185 156.383 160.846 154.013 163.922 152.397C166.998 150.78 170.399 149.964 173.838 150.017H186.463C186.936 150.017 187.449 149.976 187.994 149.932C191.808 149.623 197.194 149.188 201.613 161.961C206.662 176.559 219.288 209.736 221.812 213.717C222.81 215.533 223.335 217.593 223.335 219.689C223.335 221.786 222.81 223.845 221.812 225.661C220.174 229.483 218.05 233.054 215.5 236.278L205.4 249.548C204.376 250.219 203.494 251.103 202.808 252.145C202.121 253.188 201.645 254.367 201.409 255.61C201.172 256.853 201.18 258.134 201.432 259.374C201.685 260.614 202.176 261.786 202.875 262.819C212.657 280.637 225.008 296.754 239.488 310.594C255.254 325.058 273.166 336.713 292.513 345.098C294.546 346.796 297.123 347.606 299.709 347.358C302.295 347.111 304.691 345.827 306.4 343.771C307.782 341.834 310.51 338.482 313.601 334.684C318.979 328.076 325.457 320.116 327.862 315.903C331.65 309.267 336.7 310.594 341.75 313.248Z" fill="black"/>
</svg>